<svg width="32" height="10" viewBox="0 0 32 10" fill="none" xmlns="http://www.w3.org/2000/svg">
<g clip-path="url(#clip0_79_55)">
<path d="M13.8666 9.85568H11.2744L12.8958 0.175415H15.4879L13.8666 9.85568Z" fill="#00579F"/>
<path d="M23.2638 0.412005C22.7525 0.216139 21.9415 -0.00012207 20.9387 -0.00012207C18.3788 -0.00012207 16.5762 1.31797 16.5651 3.20245C16.5438 4.59282 17.8558 5.36506 18.837 5.82865C19.8399 6.30237 20.1808 6.61157 20.1808 7.03382C20.1706 7.68233 19.3704 7.98126 18.6241 7.98126C17.5891 7.98126 17.0346 7.82714 16.1919 7.46634L15.8505 7.31168L15.4878 9.48469C16.0958 9.75214 17.2159 9.98948 18.3788 9.99988C21.0988 9.99988 22.8695 8.70218 22.8905 6.69397C22.9009 5.592 22.2081 4.74762 20.7146 4.05764C19.808 3.61472 19.2527 3.31606 19.2527 2.86287C19.2634 2.45088 19.7224 2.0289 20.7458 2.0289C21.5885 2.00823 22.2077 2.20382 22.6768 2.39955L22.9112 2.50234L23.2638 0.412005Z" fill="#00579F"/>
<path d="M26.7088 6.42631C26.9223 5.87019 27.7438 3.71785 27.7438 3.71785C27.733 3.73851 27.9568 3.15146 28.0848 2.79107L28.266 3.62518C28.266 3.62518 28.7569 5.94232 28.8635 6.42631C28.4583 6.42631 27.2208 6.42631 26.7088 6.42631ZM29.9086 0.175415H27.9035C27.2852 0.175415 26.8154 0.35034 26.5487 0.978591L22.6982 9.85554H25.4182C25.4182 9.85554 25.866 8.66077 25.9622 8.40345C26.2606 8.40345 28.9066 8.40345 29.2904 8.40345C29.3649 8.74331 29.5997 9.85554 29.5997 9.85554H31.9999L29.9086 0.175415Z" fill="#00579F"/>
<path d="M9.10945 0.175415L6.57081 6.77643L6.2934 5.43767C5.82406 3.89291 4.3521 2.21456 2.70947 1.38004L5.03478 9.84542H7.77599L11.8505 0.175415H9.10945Z" fill="#00579F"/>
<path d="M4.2133 0.175415H0.0426673L0 0.371008C3.25336 1.17432 5.40799 3.11067 6.29323 5.43808L5.38659 0.98913C5.23732 0.370871 4.77861 0.195809 4.2133 0.175415Z" fill="#FAA61A"/>
</g>
<defs>
<clipPath id="clip0_79_55">
<rect width="32" height="10" fill="white"/>
</clipPath>
</defs>
</svg>
